<?xml version="1.0" encoding="utf-8"?>
<!-- Generator: Adobe Illustrator 15.0.0, SVG Export Plug-In . SVG Version: 6.00 Build 0)  -->
<!DOCTYPE svg PUBLIC "-//W3C//DTD SVG 1.1//EN" "http://www.w3.org/Graphics/SVG/1.1/DTD/svg11.dtd">
<svg version="1.1" id="Calque_1" xmlns="http://www.w3.org/2000/svg" xmlns:xlink="http://www.w3.org/1999/xlink" x="0px" y="0px"
	 width="668px" height="445px" viewBox="0 0 668 445" enable-background="new 0 0 668 445" xml:space="preserve">
<path fill="#FFFFFF" d="M390.688,106.167c-5.039,4.65-9.039,10.3-13.42,15.56c-0.189-7.22,0.371-14.44,0.75-21.65
	c0.141-3.19,0.07-7.19-2.97-9.11c-2.27-1.16-4.67,0.82-5.76,2.69c-3.11,10.16-9.01,19.26-16.06,27.14
	c-4.15,4.609-8.601,9.23-14.36,11.77c-2.99,1.121-5.16-1.58-6.5-3.83c-1.479-2.159-1.62-4.92-0.92-7.37
	c2.8-10.38,9.27-19.19,15.88-27.46c3.939-4.34,8.2-8.69,13.609-11.15c2.92-1.48,4.841,2.43,7.621,2.47
	c1.89-0.01,3.17-2.09,2.979-3.84c-1.899-2.94-5.03-5.81-8.8-5.41c-5.11-0.12-9.051,3.58-12.92,6.4
	c-7.891,6.93-14.2,15.5-19.41,24.56c-3.09,6.18-5.12,12.95-9.301,18.54c-2.609,4.08-5.589,7.891-8.399,11.83
	c-5.94,10.771-14.22,20.01-20.58,30.521c-1.02,1.78-2.23,3.43-3.49,5.03c-2.62-9.351-4.06-18.961-4.92-28.621
	c-0.37-4.84,2.97-8.799,5.03-12.89c11.09-22,20.55-44.81,28.26-68.21c1.801-8.27,5.16-16.24,5.42-24.79
	c0.2-7.19,0.58-14.51-0.9-21.6c-1.869-5.19-4.199-11.36-9.859-13.38c-5.6-1.51-11.26,1.88-15.02,5.82
	c-3.29,4.17-6.65,8.85-6.83,14.37c-0.2,0.09-0.6,0.271-0.8,0.36c-2.34,6.91-3.4,14.16-4.85,21.28c-1.19,11.91-3.73,23.63-4.92,35.55
	c-1.21,18.49-3.77,36.98-2.91,55.55c0.45,3.77-2.04,6.83-3.73,9.93c-2.78,3.521-0.74,8.721-3.79,12.101
	c-2.91,3.45-5.82,7.069-9.84,9.28c-2.04,1.35-5.02,2.25-7.08,0.479c-5.22-3.25-6.48-9.71-8.74-14.979
	c-3.18-12.041-4.74-24.48-5.98-36.86c16.21-9.03,26.9-25.8,31.2-43.55c2.26-6.64,4.06-13.46,4.62-20.47
	c1.54-8.53,1.16-17.41-1.68-25.63c-2.27-4.1-5.16-8.45-9.89-9.88c-4.73-1.51-9.68,0.96-13.03,4.22c-3.14,3.3-5.08,7.48-7.31,11.391
	c-1.61,3.1-2.21,6.56-3.21,9.87c-1.68,5.65-3.64,11.26-4.25,17.16c-3.3,17.33-5.35,35.1-3.52,52.72c-5.47,2.08-11.05,3.96-16.78,5.2
	c-2.78-5.32-6.56-11.07-12.72-12.68c-5.66-1.64-11.21,4.84-9.23,10.25c2.03,7.06,10.03,9.99,16.74,10.2
	c3.33,10.04,3.44,20.76,2.85,31.21c-1.1,9.57-2.58,20.16-10.16,26.96c-3.69,2.6-8.5,4.65-12.98,2.85c-3.63-1.1-6.08-4.33-7.16-7.85
	c-4.82-15.79-6.02-32.71-3.41-49.01c0.23-2.94,0.49-6.41-1.72-8.72c-1.74-2.04-4.23-3.19-6.78-3.84c-7.73-2.06-15.8-1.46-23.7-1.99
	c-0.99-6.06-0.41-12.25-1.37-18.32c-0.72-6.64-2.51-13.08-4.23-19.51c-2.4-8.54-7.98-16.811-16.78-19.62
	c-4.81-2-10.54-1.79-14.91,1.19c-6.02,5.77-8.01,14.55-7.15,22.64c0.19,5.89,3.37,11.01,6.23,15.95
	c3.98,5.98,9.24,11.08,15.18,15.09c4.62,3.5,10.3,5.07,15.39,7.72c0.56,7.83-0.32,15.71-0.39,23.561
	c-1.36,16.029-0.64,32.229-3.16,48.159c-1.53,5.44-2.44,11.98-7.67,15.24c-1.74,1.56-4.24,1.16-6.26,0.479
	c-8.82-3.659-15.81-11.58-18.04-20.909c-3.6-10.61-4.59-21.841-5.25-32.96c-0.75-10.44,0.75-20.94-0.8-31.34
	c-1.52-1.09-2.98-3.01-5.09-2.18c-3.25,1.31-3.41,5.42-3.56,8.41c-0.5,17.67-0.47,35.39,0.88,53.021
	c-0.05,12.35,3.73,25.16-0.79,37.149c-0.82,3.771-5.28,7.771-9.15,5.42c-4.79-2.67-5.91-8.6-7.39-13.409
	c-4.94-23.391-7.74-47.25-7.8-71.171c-0.74-9.76,0.53-19.75-2-29.31c-2.22-7.15-5.82-14.55-12.68-18.28
	c-6.5-4.21-15.18-3.52-21.62,0.44c-10.09,5.09-15.79,15.7-18.9,26.13c-3.57,18.78-3.43,38.149-0.18,56.97
	c0.87,12.15,4.93,23.71,7.55,35.54c3.34,9.29,5.57,19.08,10.39,27.771c1.5,2.76,6.19,0.76,5.85-2.141
	c-0.4-5.25-3.78-9.67-5.21-14.66c-1.82-6.5-4.3-12.789-5.96-19.33c-2.32-11.66-5.7-23.14-6.91-35c-0.7-11.699-1.28-23.43-0.63-35.14
	c1.09-11.04,4.16-22.72,12.49-30.59c2.96-2.63,6.62-4.52,10.46-5.5c6.39-1.08,13.14,2.91,15.59,8.86
	c5.24,9.52,4.47,20.73,4.72,31.23c-0.05,15.07,1.78,30.04,2.62,45.06c1.05,11.311,3.76,22.36,6.12,33.44
	c1.26,6.36,4.73,12.87,10.8,15.76c4.11,2.261,9.45,1.591,12.88-1.61c3.9-2.629,5.44-7.299,6.81-11.569
	c2.72-8.49,0.73-17.46,1.15-26.16c2.59,8.011,7.91,15.09,15.1,19.521c4.12,2.979,9.25,4.869,14.37,3.949
	c3.99-0.869,7.02-3.859,9.66-6.789c4.66-7.98,6.93-17.301,6.56-26.541c0.77-13.34,1.77-26.67,2.4-40.02
	c0.17-6.77,0.13-13.54,0.59-20.29c8.42,1.61,17.47,0.34,25.42,4.06c-1.93,10.621-1.62,21.44-1.11,32.17
	c0.5,9.141,2.65,18.181,6.14,26.641c2.43,5.7,8.28,9.2,14.23,10.09c5.37,0.55,10.52-1.76,14.88-4.7
	c7.65-5.989,11.12-15.61,12.67-24.899c2-13.37,1.99-27.32-2.01-40.32c5.1-1.25,10.12-2.78,15-4.74c1.47,13.25,3.48,26.5,7.32,39.271
	c2.4,5.25,4.29,11.28,9.27,14.71c3.65,3.439,9.45,3.699,13.84,1.6c5.5-2.72,9.85-7.25,13.57-12.029
	c0.56-3.721,0.01-7.891,2.86-10.841c2.55,8.98,3.4,18.33,5.87,27.33c1.14,2.74-0.79,5.271-1.54,7.82
	c-2.39,7.13-3.93,14.97-1.88,22.39c1.13,4.82,2.91,9.881,7.06,12.93c2.68,2.141,7.29,1.851,9.07-1.279
	c2.07-4.35,1.13-9.33,0.4-13.87c-1.63-8.08-3.59-16.08-4.87-24.22c5.19-9.94,11.96-18.98,18.42-28.12
	c2.33-3.351,5.78-6.4,6.01-10.75c3.25-4.64,6.9-9,9.801-13.88c2.909,3.34,5.279,8.279,10.279,8.649c7.5,0.46,13.71-5.069,18.6-10.11
	c6.84-6.64,12.381-14.489,16.931-22.839c0.149,7.43-0.08,14.89-0.8,22.28c-0.351,3.49-3.471,5.63-5.32,8.31
	c-6.43,8.921-13.33,17.881-16.4,28.61c-1.399,5.69-1.539,11.75-0.21,17.47c1.421,4.16,5.49,8.08,10.19,7.341
	c3.29-0.12,5.97-2.341,8.199-4.55c3.61-3.82,4.5-9.211,5.681-14.131c2.771-12.209,2.89-24.779,3.92-37.199
	c0.01-1.641,1.01-3.01,1.96-4.25c5.85-6.98,11.831-13.86,17.51-20.98C394.708,107.437,392.918,104.477,390.688,106.167z
	 M197.949,113.237c0.48-0.62,0.8-1.57,1.76-1.53c2.45,1.41,4.43,3.51,5.77,6C202.338,117.537,200.099,115.247,197.949,113.237z
	 M112.499,92.677c-2.45-4.44-5.06-9.14-5.02-14.36c0.09-5.14,1.44-10.48,4.77-14.51c5.45-2.76,11.27,1.25,15.2,4.891
	c2.96,4.02,4.83,8.729,6.32,13.459c2.13,9.83,3.71,19.82,3.71,29.92C127.349,108.527,118.528,101.527,112.499,92.677z
	 M239.229,69.187c0.35-9.2,3.92-17.791,5.75-26.72c0.95-4.21,3.19-7.94,4.72-11.95c1.58-3.71,4.82-7.34,9.08-7.59
	c3.15,0.55,5.04,3.59,6.06,6.39c1.31,2.12,1.56,4.62,1.81,7.04c1.16,9.98-0.71,20.01-3.64,29.53c-3.34,14.16-9.44,28.43-20.71,38.11
	c-1.7,1.6-3.31,3.41-5.64,4.05C236.219,95.057,237.128,82.017,239.229,69.187z M283.249,125.627c0.33-8.11,0.87-16.2,1.18-24.31
	c0.71-16.06,4.05-31.86,5.57-47.82c1.42-8.81,3.51-17.5,4.98-26.3c0.45-2.12,1.45-4.06,2.17-6.09l0.14-0.02
	c1.73-5.46,6.03-11.1,12.14-11.5c2.95,1.52,4,5,5.44,7.76l-0.42,0.18c3.47,11.82,0.58,24.21-2.19,35.85
	c-1.14,6.88-4.56,13.08-6.1,19.85c-6.54,17.32-13.55,34.46-21.74,51.08L283.249,125.627z M285.729,204.017
	c-0.44-2.63,0.25-5.239,0.83-7.78c1.07,6.431,3.06,12.761,3.08,19.32C286.489,212.527,286.369,208.037,285.729,204.017z
	 M366.899,167.227c-0.971,4.25-1.66,8.66-3.561,12.62c-1.4,1.681-3.21,2.96-4.84,4.41c-4.141-0.96-4.58-5.5-4.88-8.99
	c0.649-12.88,8.06-24.04,15.989-33.689C369.819,150.207,368.369,158.757,366.899,167.227z"/>
<path fill="#FFFFFF" d="M630.119,60.157c-0.611-0.351-1.84-1.04-2.461-1.391c-2.93,1.6-4.34,4.86-7.23,6.49
	c-0.029-7.73,1.262-15.47,0.34-23.18c-0.5-2.45-1.039-5.24-3.109-6.87c-1.98-0.95-4.43-0.68-6.029,0.86
	c-2.471,2.42-4.01,5.6-5.35,8.74c-5.021,8.66-11.41,16.55-19,23.1c-2.541,2.54-5.611,4.47-8.801,6.12
	c-1.84,0.96-4.529,1.28-5.949-0.53c-3.631-3.31-3.682-8.65-3.371-13.18c1.65-13.25,9.189-25.66,20.23-33.18
	c3.65-3.32,8.65-4.16,13.32-5.04c2.129-0.68,1.689-3.07,1.369-4.76c-0.529-0.36-1.6-1.08-2.139-1.44
	c-3.852,0.19-7.521,1.38-11.121,2.66c-12.141,6.83-21.939,18.11-25.949,31.57c-2.57,6.41-2.08,13.41-1.58,20.14
	c-2.75,8.66-9.73,16.17-18.6,18.67c-2.08,0.06-3.4-1.97-3.762-3.8c-1.75-9.18-0.25-18.52,0.131-27.74
	c-0.439-3.6-0.369-8.41-4.189-10.21c-4.061-3.239-9.381-0.47-12.691,2.48c-6.26,7.34-9.818,16.43-13.93,25.03
	c-2.98,5.68-4.709,11.9-7.24,17.78c-1.529,3.27-1.17,7.89-4.41,10.05c-0.77-10.02,0.281-20.07,1.211-30.05
	c0.74-7.34,1.279-14.7,1.699-22.069c0.102-2.7,1.281-5.891-0.879-8.11c-1.84-1.79-5.02-0.31-5.541,2
	c-2.369,7.15-4.439,14.44-5.34,21.93c-2.02,9.95-3.26,20.49-8.859,29.21c-3.59,5.98-8.35,11.91-15.061,14.44
	c-4.289-1.25-6.639-5.51-7.939-9.48c-0.971-5.67-3.109-11.23-2.68-17.06c0.07-2.77,0.709-5.49,0.74-8.26
	c-0.67-2.01-2.471-3.23-4.111-4.39c-2.119,1.11-4.609,2.32-5.449,4.74c-3.59,10.98-8.01,21.91-15.24,31.04
	c-3.279,4.71-7.141,9.27-12.5,11.67c-1.66,1.24-3.51-0.1-5.16-0.56c-2.561-5.01-3.32-10.76-2.641-16.3
	c0.73-6.17,1.76-12.5,5.09-17.87c3.48-7.85,8.752-15.48,16.951-18.87c3.67-1.85,7.82-1.601,11.801-1.72
	c2.92-0.82,2.328-6.32-0.83-6.18c-12.631-1.46-24.461,6.71-30.391,17.43c-2.621,5.3-6.031,10.33-7.09,16.26
	c-2.1,6.74-2.541,13.88-1.811,20.88c1.34,4.81,2.561,10.65,7.689,12.81c5.301,2.9,11.021-0.689,15.311-3.76
	c6.779-6.13,11.859-13.83,16.27-21.79c2.18-3.23,2.75-7.26,5.15-10.38c0.9,6.37,2.59,12.58,4.541,18.69
	c2.369,4.31,5.818,8.83,11.148,9.17c7.121,0.39,12.271-5.3,16.691-10.09c4.879-6.09,8.77-13.12,10.449-20.8
	c1.391,4.92-0.029,10.13,0.461,15.17c0.439,4.57,1.059,9.83,5.109,12.71c0.879-0.1,2.629-0.32,3.51-0.42
	c5.59-6.87,6.609-15.84,10.32-23.63c2.199-6.81,5.629-13.1,8.369-19.69c3.57-5.58,5.441-12.65,11.221-16.5
	c3.689-1.79,4.109,3.15,4.119,5.59c-0.488,9.69-2.629,19.57,0.17,29.12c0.521,3.31,3,6.04,6.031,7.34
	c4.84,1.26,9.709-0.65,13.58-3.51c5.539-3.16,9.299-8.45,12.639-13.74c3.262,3.59,8.781,4.64,13.15,2.58
	c8.17-3.64,14.26-10.391,20.42-16.64c3.941-4.82,7.711-9.81,10.721-15.28c0.959-1.641,1.32-3.95,3.33-4.67
	c-0.58,7.61-0.391,15.24-0.951,22.85c-0.189,2.96,0.291,6.75-2.6,8.62c-8.82,8.38-17.66,17.28-22.729,28.52
	c-3.391,6.04-3.75,13.21-4.021,19.97c0.65,4.75,1.131,10.449,5.521,13.359c3.719,3.73,9.92,2.59,13.568-0.66
	c4.82-3.24,6.801-9,8.9-14.13c3.82-15.14,6.211-30.64,6.83-46.26c3.381-3.84,7.451-7.06,10.49-11.18
	C631.199,63.317,630.258,61.627,630.119,60.157z M607.969,115.277c-1.98,6.41-3.791,14.07-10.33,17.36
	c-2.84,0.98-5.01-2.029-5.939-4.32c-1.08-4.72-0.781-9.66-0.102-14.419c3.512-12.47,11.99-22.89,21.391-31.53
	C612.238,93.457,609.689,104.317,607.969,115.277z"/>
<path fill="#FFFFFF" d="M623.039,134.747c0.89-0.14,1.79-0.27,2.71-0.39c2.439,8.67,5.439,17.21,6.99,26.11
	c-1.101,0.18-2.19,0.37-3.271,0.55c-3.24-6.17-7.24-12.26-13.4-15.84c-7.149-3.62-15.539-2.32-22.729,0.41
	c-3.1,2.08-6.49,4.52-7.49,8.33c-1.59,4.49-0.609,9.52,2.2,13.3c7.7,5.93,17.94,4.89,27.02,6.29c8.98,0.17,19.49,1.81,24.98,9.77
	c4.38,5.26,4.06,12.56,3.52,18.96c-4.01,11.11-16.21,17.24-27.479,17.71c-6.55,0.62-12.62-2.29-18.21-5.3
	c-0.94,2.93-1.84,5.87-2.71,8.82c-0.58,0.37-1.74,1.12-2.32,1.49c-3.03-9.42-4.979-19.12-7.319-28.72
	c0.689-0.29,2.06-0.86,2.75-1.15c3.81,5.93,7.149,12.55,13.35,16.4c7.13,5.15,16.78,4.33,24.8,2.01
	c6.061-3.13,12.37-8.74,11.92-16.19c0.271-5.02-3.069-9.52-7.06-12.21c-8.431-4.15-18.141-3.82-27.25-5.06
	c-7.73-0.15-15.87-2.71-20.971-8.771c-3.27-5.12-4.27-11.7-2.39-17.52c1.29-5.52,6.13-9.22,10.9-11.74
	c9.17-4.81,20.88-4.25,29.55,1.43C621.549,140.497,622.389,137.637,623.039,134.747"/>
<path fill="#FFFFFF" d="M533.398,146.887c8.431-3.07,17.311-4.79,26.011-6.92c0.479,1.48,0.93,2.97,1.38,4.48
	c-2.54,0.81-6.05,0.8-7.08,3.8c-1.26,3.67,0.5,7.39,1.18,10.99c1.87,11.69,6.04,22.86,7.95,34.55c2.7,8.32,2.63,17.57-0.75,25.67
	c-6.3,12.27-21.04,17.24-34.05,17.5c-7.42,0.79-14.73-2.64-19.92-7.76c-3.29-4.44-6.15-9.38-7.44-14.79
	c-1.46-9.54-4.7-18.68-6.8-28.07c-0.8-6.31-2.71-12.4-4.271-18.54c-0.989-2.61-3.35-5.61-6.5-4.89c-2.479,0.44-4.899,1.13-7.34,1.72
	c-0.109-1.5-0.189-3-0.25-4.49c10.2-2.28,20.2-5.46,30.561-7.02c0.58,1.16,1.029,2.39,1.51,3.6c-3.48,1.64-7.98,1.53-10.62,4.61
	c-1.67,3.83,0.5,7.79,1.26,11.58c1.38,10.3,5.17,20.07,7.13,30.25c1.181,7.41,3.45,14.8,7.61,21.1c2.54,2.46,5.2,5.05,8.53,6.41
	c7.569,2.14,15.6,0.85,23.04-1.2c6.47-2.85,12.63-7.9,14.399-15.04c3.261-7.78,0.431-16.06-1.569-23.75
	c-1.771-10.29-4.9-20.28-7.261-30.44c-0.54-3.58-0.56-7.85-3.85-10.18c-3.36-2.87-7.57-0.02-11.29,0.21
	C534.389,149.157,533.869,148.037,533.398,146.887"/>
<path fill="#FFFFFF" d="M444.139,165.357c4.08-0.77,8.07-1.9,12.07-2.98c1.189,2.57,2.08,5.26,2.7,8.03
	c1.38,6.65,3.569,13.1,5.75,19.53c-1.101,0.67-2.33,1.08-3.58,1.37c-2.54-7.2-6.03-14.91-12.61-19.25
	c-7.38-2.28-15.2-0.229-22.46,1.63c-5.02,1.35-10.46,1.76-14.92,4.65c-1.701,1.45-1.451,3.97-1.061,5.94
	c1.45,6.52,3.181,12.98,4.73,19.49c0.62,2.28,0.31,4.8,1.42,6.95c5.23-1.5,10.521-2.77,15.84-3.95c2.86-0.33,5.771-1.68,7.12-4.35
	c2.61-4.21,0.34-9.21-0.07-13.69c0.891-0.26,2.671-0.78,3.561-1.03c2.91,11.99,5.97,23.94,8.22,36.06
	c-1.3,0.04-3.149,1.76-3.97,0.07c-1.17-3.771-2.19-7.67-4.26-11.07c-4.011-3.17-9.17-1.39-13.601-0.38
	c-3.979,0.34-7.939,0.97-11.72,2.29c-0.181,3.43,1.4,6.68,2.01,10.03c2.061,7.04,2.28,14.51,4.82,21.43c1.01,2.64,3.9,4.27,6.7,3.77
	c4.35-0.95,8.68-1.99,13.09-2.63c7.42-1.82,15.91-2.9,21.229-8.99c3.96-6.17,3.62-13.92,3.57-20.96c-0.25-1.75,0.62-2.68,2.61-2.8
	c2.05,9.93,2.97,20.061,5.12,29.98c-3.42,0.81-6.811,1.81-10.28,2.39c-8.7,1.04-17,4.02-25.58,5.67
	c-11.18,1.68-22.05,4.94-33.061,7.48c-0.44-1.64-0.851-3.271-1.221-4.91c3.7-0.99,10.301-0.48,10.491-5.77
	c-0.47-11.14-4.63-21.68-6.501-32.6c-1.54-9.9-4.899-19.41-6.34-29.33c-0.1-3.57-3.14-7.24-6.89-7.04
	c-2.31-0.02-4.51,0.74-6.67,1.44c-0.49-1.45-0.86-2.94-1.1-4.45c9.19-1.52,18.04-4.76,27.301-5.88
	C425.769,169.417,434.829,166.767,444.139,165.357"/>
<path fill="#FFFFFF" d="M393.328,222.327c-1.021-4.9-3.43-9.351-5.521-13.851c-4.13-8.42-12.33-14.83-21.71-16.07
	c-11.32-2.1-22.3,2.43-33.25,4.53c-7.44,1.16-14.71,3.12-21.99,4.96c0.39,1.28,0.81,2.58,1.38,3.81c2.82-0.68,5.84-1.75,8.75-0.99
	c3.33,1.47,4.5,5.25,5.06,8.54c1.71,11.53,5.4,22.65,7.24,34.15c1.5,6.66,3.15,13.28,4.729,19.92c0.47,2.02,0.82,4.52-0.82,6.14
	c-2.12,2.56-5.62,2.81-8.58,3.7c-1.47,1.07-0.07,2.83-0.03,4.22c12.37-2.64,24.76-5.14,37.01-8.34
	c13.98-2.17,27.51-13.06,29.23-27.69C396.548,237.687,394.738,229.887,393.328,222.327z M387.328,247.827
	c-1.04,4.09-3.021,7.9-5.24,11.46c-3,2.72-5.88,5.88-9.83,7.22c-5.92,2.37-12.21,3.5-18.35,5.13c-2.35,0.59-5.37,1.17-7.27-0.77
	c-3.17-2.98-2.66-7.71-3.9-11.56c-3.55-13.3-5.58-26.91-9.13-40.21c-1.14-5.19-3.04-10.59-1.79-15.92
	c4.4-4.04,10.88-3.98,16.34-5.71c7.63-1.22,16.37-2.14,23.02,2.69c4.62,2.57,7.65,7.12,10.24,11.58
	C386.108,223.057,389.578,235.507,387.328,247.827z"/>
<path fill="#FFFFFF" d="M318.288,280.757c-4.15,1.35-9.06,0.53-12.27-2.45c-11.07-16.04-21.73-32.33-32.48-48.59
	c-4.93-6.87-8.88-14.42-14.28-20.93c-1.49,0.38-2.96,0.79-4.42,1.21c-0.91,14.97-4.85,29.54-6.05,44.47
	c-1.23,7.93-2.61,15.83-3.9,23.75c-0.54,4.39-0.68,8.85-1.83,13.14c-1.15,3.541,0.76,7.1,0.99,10.65c6.54-1.26,12.91-3.27,19.5-4.27
	c-0.48-1.4-0.95-2.811-1.4-4.21c-4.51,0.229-10.69,3.069-13.58-2.021c0.23-7.16,1.24-14.26,2.2-21.35
	c6.5-1.68,13.22-2.28,19.67-4.21c5.47-0.95,10.76-3.38,16.36-3.35c2.8,5.07,6.68,9.46,9.49,14.54c1.17,2.08,3.68,4.57,1.5,6.89
	c-2.37,2.31-6.04,2.54-9.09,3.4c0.03,1.49,0.09,2.99,0.18,4.5c5.36-0.52,10.54-2.08,15.76-3.34c4.92-1.37,10-2.12,14.84-3.78
	C319.088,283.457,318.688,282.107,318.288,280.757z M251.678,265.267c2.75-15.12,3.49-30.54,7.02-45.51
	c8.1,12.86,16.74,25.36,24.98,38.14C273.228,261.267,262.278,262.537,251.678,265.267z"/>
<path fill="#FFFFFF" d="M188.398,217.787c6.93-2.021,14.07-3.19,21.14-4.58c0.43,1.4,0.84,2.82,1.24,4.25
	c-3.62,1.03-7.56,1.5-10.67,3.78c-1.79,1.98-1.61,4.81-0.99,7.22c1.47,5.56,2.81,11.15,4.14,16.75c1.55,9.44,4.41,18.6,6.42,27.95
	c0.97,6.5,2.77,12.83,4.28,19.22c0.87,3.19,1.68,6.66,3.98,9.18c3.83,1.07,7.68-0.739,11.36-1.659c0.53,1.55,1.07,3.109,1.56,4.69
	c-10.95,3.069-22.23,4.6-33.17,7.689c-0.39-1.63-0.78-3.25-1.14-4.88c3.93-0.91,9.18-0.84,11.03-5.2c0.85-4.44-1.43-8.66-2.01-13
	c-1.33-9.08-4.3-17.79-6.16-26.75c-1.63-10.94-5.43-21.41-7.19-32.32c-0.65,0.61-1.16,1.35-1.16,2.28
	c-0.69,8.19-2.3,16.26-3.3,24.41c-0.7,12.31-3.33,24.4-4.72,36.64c-0.39,7.5-1.88,14.891-2.75,22.351
	c-1.31,0.44-2.63,0.86-3.94,1.261c-14.74-22.611-29.35-45.302-44.14-67.872c-0.94-1.65-1.47-3.82-3.48-4.47
	c3,12.59,5.57,25.29,9,37.8c1.4,8.67,3.78,17.121,5.86,25.641c0.8,2.97,0.83,6.88,4,8.45c3.14,2.29,6.88,0.08,10.15-0.71
	c0.97,1.47,1.56,3.13,2.06,4.83c-8.29,1.939-16.51,4.16-24.81,6.08c-0.76-1.529-1.51-3.06-2.26-4.58c4.07-0.12,7.77-3.61,6.78-7.891
	c-1.43-9.78-4.73-19.211-6.76-28.881c-0.8-6.85-2.87-13.44-4.55-20.11c-2.15-7.25-2.29-14.97-5.08-22.05
	c-0.73-2.1-2.69-3.85-4.98-3.89c-2.96-0.19-5.77,0.99-8.66,1.41c-0.27-1.67-0.53-3.33-0.75-4.99c6.56-0.75,12.88-2.63,19.27-4.17
	c1.74-0.85,2.35,1.24,3.07,2.31c13.64,20.8,27.29,41.57,40.82,62.461c1.74,2.47,2.86,5.67,5.63,7.2
	c0.44-12.291,3.21-24.321,4.56-36.501c0.46-9.1,2.39-18.03,3.59-27.04C187.018,232.717,186.948,225.157,188.398,217.787"/>
<path fill="#FFFFFF" d="M632.789,238.007c4.1-0.71,8.02-2.25,12.18-2.69c-4.95,13.39-10.34,26.58-15.46,39.89
	c8.11,7.42,15.88,15.18,23.96,22.63c2.14,2.61,5.33,4.3,6.88,7.381c-4.08,0.61-8.1,1.87-12.25,1.83
	c-6.34-5.551-11.92-11.98-18.21-17.611c-1.67-1.43-2.79-3.52-4.91-4.36c-2.18,5.37-3.5,11.05-5.89,16.34
	c-1.92,4.221-2.6,8.94-4.91,12.991c-0.62,1.14-1.95,1.34-3.07,1.649c-3.09,0.73-6.13,1.69-9.26,2.2
	c3.7-10.17,8.04-20.081,11.49-30.341c1.2-3.18,3.1-6.15,3.67-9.54c-0.51-1.91-2.62-2.83-3.91-4.19
	c-8.84-8.22-17.39-16.76-26.39-24.81c-0.03-0.27-0.101-0.82-0.13-1.09c3.96-0.78,7.859-2.04,11.91-2.24
	c8,7.09,14.96,15.45,23.35,22.09C625.049,257.957,629.289,248.117,632.789,238.007"/>
<path fill="#FFFFFF" d="M123.838,326.948c-2.89,0.311-5.96,1.07-8.7-0.319c-5.11-1.681-7.56-6.94-10.31-11.131
	c-14.92-22.161-29.62-44.481-44.42-66.721c-1.53,0.46-3.06,0.9-4.6,1.33c-0.49,3.99-1.28,7.93-1.78,11.91
	c-1.08,13.58-4.6,26.83-5.59,40.421c-1.5,10.72-4.05,21.301-4.78,32.121c-0.33,2.44-0.99,4.91-2.24,7.051
	c-2.34,2.65-5.53,4.28-8.78,5.5c0.29,1.59,0.58,3.19,0.89,4.79c6.14-1.43,12.16-3.42,18.41-4.279c4.4-0.681,8.75-1.671,13-2.99
	c-0.46-1.411-0.92-2.811-1.39-4.201c-4.08,0.391-8.46,2.13-12.45,0.5c-2.29-0.729-1.98-3.649-2.24-5.569
	c0.18-6.831,0.99-13.682,2.68-20.302c12.55-3.04,25.35-4.86,37.74-8.61c3.44,4.19,5.86,9.07,9.18,13.351
	c1.38,2.811,4.08,5.421,3.97,8.681c-2.03,4.08-6.88,4.61-10.79,5.66c0.34,1.53,0.71,3.061,1.09,4.591
	c5.73-1.37,11.39-3.061,17.18-4.131c5.06-0.58,9.99-1.93,14.91-3.22C124.528,329.889,124.188,328.408,123.838,326.948z
	 M52.188,309.878c1.12-6.471,1.88-12.971,2.55-19.501c1.89-9.72,2.93-19.62,4.71-29.33c9.27,13.63,18.1,27.52,27.34,41.17
	C75.348,305.237,63.638,306.897,52.188,309.878z"/>
<path fill="#FFFFFF" d="M534.229,259.987c3.351-0.93,6.801-1.42,10.221-2.07c1.51,4.5,1.939,9.25,2.81,13.89
	c1.99,7.95,4.33,15.84,5.58,23.96c2.32,10.581,5.4,20.981,7.12,31.692c-3.38,0.67-6.72,1.55-10.08,2.33
	c-1.96-10.201-4.23-20.321-6.8-30.382c-1.5-9.2-3.96-18.19-6.351-27.18C535.979,268.127,535.358,263.997,534.229,259.987"/>
<path fill="#FFFFFF" d="M474.259,273.837c3.34-1.07,6.79-1.78,10.22-2.55c1.42,5.26,2.851,10.54,3.57,15.96
	c1.56,8.04,4.16,15.86,5.46,23.971c1.55,10.16,5.71,19.871,6.34,30.161c-3.31,0.51-6.52,1.48-9.78,2.221
	c-14.21-14.221-28.76-28.102-42.96-42.333c-1.18-1.22-2.489-2.289-3.909-3.199c0.47,3.08,1.39,6.08,2,9.141
	c1.449,9.84,5.239,19.19,6.52,29.061c0.94,4.82,2.44,9.501,3.55,14.281c-2.52,2.33-6.779,1.64-9.83,3.17
	c-3.83-12.301-5.35-25.141-8.87-37.521c-1.67-5.831-2.149-11.91-3.75-17.761c-1.159-4.881-2.789-9.65-3.659-14.601
	c3.699-0.73,7.43-1.3,11.09-2.24c5.229,4.22,9.5,9.48,14.479,13.98c10.12,9.98,20.19,20.021,30.431,29.861l1.479,0.96
	c-0.88-4.37-2.399-8.58-3.109-12.98c-1.461-9.471-4.9-18.511-6.36-27.981C476.479,281.507,475.209,277.707,474.259,273.837"/>
<path fill="#FFFFFF" d="M377.968,295.507c2.6-0.54,5.13-1.33,7.74-1.89c0.77,3.01,1.35,6.07,2.12,9.09
	c-9.061,2.581-18.38,4.061-27.54,6.24c1.24,7.011,3.65,13.761,4.68,20.802c9.26-1.44,18.05-5.061,27.36-6.221
	c0.78,3.04,1.61,6.07,2.45,9.11c-9.15,2.46-18.62,3.471-27.69,6.261c1.38,7.07,3.7,13.931,4.73,21.081
	c9.17-1.98,18.42-3.671,27.42-6.4c0.72,3.08,1.451,6.15,2.331,9.189c-7.161,1.941-14.431,3.441-21.601,5.341
	c-5.19,1.16-10.6,1.5-15.52,3.65c-0.53-1.13-0.95-2.311-1.3-3.48c-2.04-7.59-3-15.4-5.06-22.99c-2.36-9.081-3.87-18.342-6.26-27.412
	c-1.271-5.271-2.99-10.471-3.49-15.9C358.318,300.317,367.968,297.067,377.968,295.507"/>
<path fill="#FFFFFF" d="M315.948,346.35c-2.42-8.421-6.87-16.701-14.28-21.691c-6.79-5.42-15.79-7.49-24.34-7.03
	c-4.55,0.3-8.91,1.771-13.19,3.26c-12.2,5.521-20.69,18.151-21.45,31.492c-1.17,16.601,10.3,33.321,26.46,37.662
	c8.98,3.35,18.93,1.5,27.41-2.391C311.318,380.361,319.938,362.41,315.948,346.35z M300.808,372.061
	c-4.67,5.511-11.5,9.421-18.71,10.301c-14.88,1.021-29.03-12.11-29.18-27.021c-0.74-12.48,8.24-24.781,20.48-27.602
	c7.72-2.279,15.87,0.42,22.33,4.71c6.65,5.61,10.9,14.151,10.98,22.882C306.778,361.4,304.118,367.121,300.808,372.061z"/>
<path fill="#FFFFFF" d="M186.318,339.239c3.39-0.561,6.75-1.29,10.03-2.34c1.32,4.81,2.48,9.66,3.18,14.601
	c1.6,8.45,4.53,16.601,5.71,25.131c2.23,9.961,5.19,19.761,6.72,29.861c-3.37,0.78-6.74,1.58-10.13,2.32
	c-1.8-10.181-4.3-20.221-6.65-30.292c-9.6,1.53-18.88,4.781-28.49,6.411c1.62,10.33,4.74,20.311,7.07,30.48
	c-3.46,0.591-6.82,1.61-10.21,2.471c-1.29-6.25-3.05-12.391-4.46-18.601c-1.82-10.081-4.26-20.021-6.79-29.951
	c-1.1-7.191-3.14-14.181-4.97-21.201c3.36-0.86,6.71-1.74,10.11-2.37c2.96,9.891,4.21,20.201,7.1,30.102
	c9.4-2.48,19.04-3.921,28.43-6.461c-0.73-6.069-2.93-11.851-3.99-17.86C188.348,347.38,187.228,343.33,186.318,339.239"/>
<path fill="#FFFFFF" d="M101.438,367.9c-4.24-4.21-10.59-5.641-16.38-4.94c-8.98,1.711-18.01,3.251-26.78,5.9
	c0.81,2.811,1.57,5.641,2.1,8.521c1.61,10.041,5.04,19.681,6.5,29.762c2.53,10.2,5.35,20.36,6.8,30.801
	c3.42-0.4,6.79-1.07,10.2-1.48c-0.42-9.57-4.67-18.52-5.62-27.96c6.92-1.82,14.09-3.07,20.54-6.281
	c4.41-3.189,7.66-7.979,9.18-13.19C109.358,381.501,106.908,373.281,101.438,367.9z M97.868,385.382
	c-0.07,4.319-3.19,7.87-6.68,10.021c-4.82,2.229-10.19,2.479-15.3,3.64c-1.88-7.75-4.12-15.42-5.34-23.311
	c5.84-1.2,11.6-3.4,17.63-3.241C93.998,373.441,98.848,379.391,97.868,385.382z"/>
</svg>
